<svg xmlns="http://www.w3.org/2000/svg" viewBox="0 0 256 256"><rect width="256" height="256" fill="none"/><path d="M123.6,210.55,103,224H48a8,8,0,0,1-6.4-12.8l72-96-33.6-25.2a8,8,0,0,1,9.6-12.8l43.2,32.4,43.2-32.4a8,8,0,0,1,9.6,12.8L152,112l72,96a8,8,0,0,1-6.4,12.8H153l-20.4-13.45a8,8,0,0,0-9.2,0Z" fill="#ce2828"/><path d="M128,144.51h0a40,40,0,0,1-32.4-61L54.4,32A8,8,0,0,0,48,32H32a8,8,0,0,0,0,16H44.4L80,94.06a40,40,0,0,1,4.4,7.49L72.8,112,40,150.4a8,8,0,0,0-1.6,11.2,8.13,8.13,0,0,0,4.8,3.2,8,8,0,0,0,6.4-1.6L83.2,136H96a56,56,0,0,0,51.6-84.4L176,32h16a8,8,0,0,0,0-16H179.2a8,8,0,0,0-6.4,3.2L139.2,64.8A56.08,56.08,0,0,0,128,64a56,56,0,0,0-46.8,25.2L72.8,100,84,112.8l10.8-12.8a40,40,0,0,1,61.6-28.8L160,67.6V56a8,8,0,0,0-16,0v8.4l-3.6,2.4a56,56,0,0,0-36.4,96.4v0a8,8,0,0,0,16,0A40,40,0,0,1,128,144.51Z" fill="#262626"/></svg>